<svg xmlns="http://www.w3.org/2000/svg" xmlns:xlink="http://www.w3.org/1999/xlink" width="25" height="25" viewBox="0 0 25 25"><defs><clipPath id="a"><rect width="25" height="25" transform="translate(193 5270)" fill="#fff"/></clipPath><clipPath id="b"><ellipse cx="12" cy="12.5" rx="12" ry="12.5" transform="translate(0.4 0.103)" fill="#163f89" opacity="0.4"/></clipPath></defs><g transform="translate(-193 -5270)"><g clip-path="url(#a)"><rect width="25" height="25" rx="4" transform="translate(193 5270)" fill="#1d73f8"/><g transform="translate(188.6 5261.896)" opacity="0.99" clip-path="url(#b)"><rect width="25" height="25" rx="4" transform="translate(4.4 8.103)" fill="#165cd9"/></g></g><g transform="translate(193.932 5274.504)"><path d="M17.614,12.182a.932.932,0,1,1-.932-.932A.932.932,0,0,1,17.614,12.182Z" transform="translate(-5.273 -5.273)" fill="#fff"/><path d="M11.409,2.25A4.566,4.566,0,0,0,6.75,6.705a10.384,10.384,0,0,0,1.585,4.624,34.171,34.171,0,0,0,2.33,3.588.924.924,0,0,0,1.491,0,34.307,34.307,0,0,0,2.33-3.588,10.39,10.39,0,0,0,1.583-4.624A4.566,4.566,0,0,0,11.409,2.25Zm0,6.523a1.864,1.864,0,1,1,1.864-1.864A1.864,1.864,0,0,1,11.409,8.773Z" fill="#fff"/></g></g></svg>