<svg xmlns="http://www.w3.org/2000/svg" width="16.84" height="17.257" viewBox="0 0 16.84 17.257"><g transform="translate(-6.17)"><path d="M-7639.2-10044.743a1.039,1.039,0,0,1-1.038-1.04v-13.513a1.039,1.039,0,0,1,1.038-1.04h2.7v-1.041a.623.623,0,0,1,.624-.623.625.625,0,0,1,.624.623v1.041h7.068v-1.041a.625.625,0,0,1,.624-.623.623.623,0,0,1,.624.623v1.041h2.5a1.042,1.042,0,0,1,1.04,1.04v13.513a1.042,1.042,0,0,1-1.04,1.04Zm.209-1.247h14.346v-8.942h-14.346Zm14.346-10.189v-2.909h-2.288v1.038a.624.624,0,0,1-.624.626.626.626,0,0,1-.624-.626v-1.038h-7.068v1.038a.626.626,0,0,1-.624.626.624.624,0,0,1-.624-.626v-1.038h-2.5v2.909Zm-9.356,7.9a.624.624,0,0,1-.624-.624.623.623,0,0,1,.624-.623h4.573a.625.625,0,0,1,.624.623.625.625,0,0,1-.624.624Zm0-2.909a.624.624,0,0,1-.624-.626.624.624,0,0,1,.624-.624h4.573a.625.625,0,0,1,.624.624.626.626,0,0,1-.624.626Z" transform="translate(7646.41 10062)"/></g></svg>