<svg xmlns="http://www.w3.org/2000/svg" xmlns:xlink="http://www.w3.org/1999/xlink" width="25" height="25" viewBox="0 0 25 25"><defs><clipPath id="a"><rect width="25" height="25" transform="translate(193 5270)" fill="#fff" stroke="#707070" stroke-width="1"/></clipPath><clipPath id="b"><ellipse cx="12" cy="12.5" rx="12" ry="12.5" transform="translate(0.4 0.103)" fill="#163f89" opacity="0.4"/></clipPath></defs><g transform="translate(-193 -5270)"><g clip-path="url(#a)"><rect width="25" height="25" rx="4" transform="translate(193 5270)" fill="#1d73f8"/><g transform="translate(188.6 5261.896)" opacity="0.99" clip-path="url(#b)"><rect width="25" height="25" rx="4" transform="translate(4.4 8.103)" fill="#165cd9"/></g></g><path d="M12.183,14.641a5.212,5.212,0,0,1-2.434-.83,15.823,15.823,0,0,1-3.823-2.859A14.516,14.516,0,0,1,3.056,7.13c-1.019-1.853-.845-2.824-.651-3.24A2.587,2.587,0,0,1,3.419,2.8a4.876,4.876,0,0,1,.792-.42l.076-.033a.74.74,0,0,1,.607-.055,1.777,1.777,0,0,1,.577.443A9.582,9.582,0,0,1,6.914,4.878a2.132,2.132,0,0,1,.283.877,1.387,1.387,0,0,1-.352.824c-.036.05-.072.1-.107.143-.21.277-.256.356-.226.5A5.246,5.246,0,0,0,7.789,9.116a5.032,5.032,0,0,0,1.873,1.247c.149.032.231-.016.516-.234.041-.031.083-.064.127-.1a1.393,1.393,0,0,1,.837-.374h0a2.005,2.005,0,0,1,.881.309A10.557,10.557,0,0,1,14.158,11.4a1.784,1.784,0,0,1,.444.575.745.745,0,0,1-.055.609c-.01.023-.022.048-.033.076a4.881,4.881,0,0,1-.423.791A2.585,2.585,0,0,1,13,14.461a1.864,1.864,0,0,1-.818.179Z" transform="translate(197.154 5273.412)" fill="#fff"/></g></svg>