<svg xmlns="http://www.w3.org/2000/svg" xmlns:xlink="http://www.w3.org/1999/xlink" width="25" height="25" viewBox="0 0 25 25"><defs><clipPath id="a"><rect width="25" height="25" transform="translate(193 8686)" fill="#fff" stroke="#707070" stroke-width="1"/></clipPath><clipPath id="b"><ellipse cx="12" cy="12.5" rx="12" ry="12.5" transform="translate(0.4 0.103)" fill="#163f89" opacity="0.4"/></clipPath></defs><g transform="translate(-193 -8686)"><g clip-path="url(#a)"><g transform="translate(0 3416)"><rect width="25" height="25" rx="4" transform="translate(193 5270)" fill="#1d73f8"/><g transform="translate(188.6 5261.897)" opacity="0.99" clip-path="url(#b)"><rect width="25" height="25" rx="4" transform="translate(4.4 8.103)" fill="#165cd9"/></g></g><path d="M15.369,5.625H3.631A1.385,1.385,0,0,0,2.25,7.006v8.631a1.385,1.385,0,0,0,1.381,1.381H15.369a1.385,1.385,0,0,0,1.381-1.381V7.006A1.385,1.385,0,0,0,15.369,5.625ZM15.2,8.56l-5.7,3.8L3.8,8.56V7.179l5.7,3.8,5.7-3.8Z" transform="translate(196.5 8687.785)" fill="#fff"/></g></g></svg>