<svg xmlns="http://www.w3.org/2000/svg" xmlns:xlink="http://www.w3.org/1999/xlink" width="25" height="25" viewBox="0 0 25 25"><defs><clipPath id="a"><rect width="25" height="25" transform="translate(193 5270)" fill="#fff" stroke="#707070" stroke-width="1"/></clipPath><clipPath id="b"><ellipse cx="12" cy="12.5" rx="12" ry="12.5" transform="translate(0.4 0.103)" fill="#163f89" opacity="0.4"/></clipPath></defs><g transform="translate(-193 -5270)"><g clip-path="url(#a)"><rect width="25" height="25" rx="4" transform="translate(193 5270)" fill="#1d73f8"/><g transform="translate(188.6 5261.896)" opacity="0.99" clip-path="url(#b)"><rect width="25" height="25" rx="4" transform="translate(4.4 8.103)" fill="#165cd9"/></g></g><path d="M9.589,3.375A6.214,6.214,0,1,0,15.8,9.589,6.214,6.214,0,0,0,9.589,3.375Zm2.868,7.17H9.589a.478.478,0,0,1-.478-.478v-4.3a.478.478,0,1,1,.956,0V9.589h2.39a.478.478,0,1,1,0,.956Z" transform="translate(196.037 5273.036)" fill="#fff"/></g></svg>